<svg xmlns="http://www.w3.org/2000/svg" fill="none" viewBox="0 0 78 78" width="80">
  <path fill="#1A1A18" fill-rule="evenodd" d="M39 78A39 39 0 1 0 0 39a39.072 39.072 0 0 0 39 39Z" clip-rule="evenodd"/>
  <path fill="#ADD7FF" fill-rule="evenodd" d="M38.921 25.144a5.382 5.382 0 1 1-5.382 5.382 5.36 5.36 0 0 1 5.382-5.382Z" clip-rule="evenodd"/>
  <path fill="#ADD7FF" d="M35.198 58.365c-1.287.22-2.59.32-3.896.303a14.472 14.472 0 0 1-5.707-.969 3.682 3.682 0 0 1-1.959-1.926 3.038 3.038 0 0 1-.203-1.596c.086-.554.337-1.07.72-1.48a3.693 3.693 0 0 1 2.526-1.062 18.07 18.07 0 0 1 2.543.116h.236a3.516 3.516 0 0 0 .27 3.56c.968 1.502 2.84 2.477 5.47 3.054ZM33.765 49.406v-.275a15.268 15.268 0 0 0-.126-3.489 4.662 4.662 0 0 0-1.376-2.795c-.815-.754-2.075-1.393-4.012-2.202a24.428 24.428 0 0 1-4.733-2.658 19.728 19.728 0 0 1-3.714-3.384c-.963-1.002-1.205-2.069-.996-2.884a2.02 2.02 0 0 1 .55-.946 1.85 1.85 0 0 1 .996-.484c.765-.127 1.717.198 2.581 1.205a26.415 26.415 0 0 0 7.77 5.217 21.682 21.682 0 0 0 8.299 1.585c3.053.05 6.08-.565 8.87-1.805a25.4 25.4 0 0 0 7.155-4.953 3.06 3.06 0 0 1 2.454-1.178c.361.028.706.162.99.386.28.22.49.516.606.852a3.176 3.176 0 0 1-.666 2.752v.033a18.432 18.432 0 0 1-3.445 3.269 31.362 31.362 0 0 1-5.206 3.02 16.09 16.09 0 0 0-3.934 2.268 4.403 4.403 0 0 0-1.475 2.713 13.71 13.71 0 0 0 .077 3.373l.27 1.976a41.521 41.521 0 0 1-6.791-.49c-2.02-.363-2.867-.913-4.144-1.106Z"/>
  <path fill="#ADD7FF" d="M52.19 57.997c-1.569.603-3.241.885-4.92.83a48.318 48.318 0 0 1-9.003-1.006 18.655 18.655 0 0 1-5.856-2.268 3.303 3.303 0 0 1-1.53-2.201 1.838 1.838 0 0 1 1.15-1.97c.766-.336 1.938-.325 3.462.292 2.11.64 4.295.998 6.5 1.062 2.309.156 4.629.04 6.911-.347a6.686 6.686 0 0 1 3.137.1 3.55 3.55 0 0 1 2.3 1.65 2.476 2.476 0 0 1-.424 2.669 4.523 4.523 0 0 1-1.728 1.189ZM9.338 26.63a.935.935 0 1 1 1.469-1.145l6.9 8.75a.935.935 0 1 1-1.469 1.155l-6.9-8.76ZM8.055 29.936a.944.944 0 0 1 1.497-1.15l4.826 6.164a.936.936 0 0 1-1.47 1.15l-4.853-6.164ZM16.954 29.045a1.167 1.167 0 0 1-1.536-1.755 35.423 35.423 0 0 1 23.438-8.805A36.81 36.81 0 0 1 62.6 27.328a1.167 1.167 0 1 1-1.507 1.783 34.432 34.432 0 0 0-22.238-8.315 33.112 33.112 0 0 0-21.902 8.25ZM67.193 25.484a.936.936 0 1 1 1.47 1.156l-6.902 8.75a.936.936 0 1 1-1.469-1.156l6.9-8.75ZM68.474 28.786a.933.933 0 0 1 1.632.82.93.93 0 0 1-.163.325l-4.81 6.174a.94.94 0 0 1-1.547-.116.93.93 0 0 1 .078-1.034l4.81-6.169Z"/>
</svg>
