<svg width="261" height="271" viewBox="0 0 261 271" fill="none" xmlns="http://www.w3.org/2000/svg">
<path fill-rule="evenodd" clip-rule="evenodd" d="M73.588 0.52558C72.09 4.42758 71.119 21.6686 72.033 28.1206C74.064 42.4656 81.644 56.1676 94.785 69.2506C102.374 76.8066 103.805 77.7126 119.085 84.6386C136.155 92.3766 142.044 96.3086 152.237 106.775C163.113 117.942 178 134.571 178 135.552C178 135.923 177.809 136.04 177.576 135.811C177.343 135.581 168.892 127.269 158.796 117.339C141.071 99.9046 140.079 99.1056 129.97 94.1246C124.211 91.2876 115.675 87.4096 111 85.5066C96.088 79.4366 72.877 68.9846 60.555 62.7916C37.805 51.3566 15.903 35.0146 5.48499 21.6986L0 14.6896L0.0169983 18.5416C0.0269983 20.6596 0.675991 25.4206 1.45999 29.1196C6.08199 50.9296 15.874 67.2586 32 80.0496C39.515 86.0106 58.938 97.1546 71.838 102.908C87.337 109.819 105.99 118.551 106.636 119.197C108.158 120.719 53.243 102.749 42.914 98.3446C32.583 93.9396 14.535 82.7096 8.75 77.0856C6.137 74.5466 4 72.7416 4 73.0756C4 75.2986 8.673 88.0966 11.189 92.7646C20.336 109.735 32.77 120.54 52.829 128.952C56.498 130.491 67.233 134.025 76.684 136.806C100.29 143.752 120.649 151.913 105.34 148.292C102.128 147.533 93.109 146.427 85.298 145.834C70.118 144.683 49.566 140.41 39.551 136.323C37.733 135.581 37.75 135.735 39.816 138.635C43.892 144.36 55.209 153.848 61.513 156.827C69.255 160.485 75.883 162.202 92.5 164.857C107.6 167.269 114.572 169.119 119.481 172.015C123.555 174.419 123.73 175.306 120.938 179.394C119.812 181.044 116.383 187.344 113.318 193.394C100.268 219.155 78.616 245.555 55.25 264.195C51.262 267.376 48 270.252 48 270.585C48 271.637 65.298 270.02 70.099 268.519C82.62 264.603 92.395 256.916 102.089 243.362C105.026 239.255 107.757 235.894 108.157 235.894C109.665 235.894 98.715 257.768 92.325 267.52L90.547 270.235L93.937 269.557C99.43 268.458 109.671 262.764 114.532 258.106C121.333 251.589 123.87 247.092 128.918 232.609L133.525 219.394L163.205 209.394L192.886 199.394L203.813 185.564C216.145 169.954 214.184 174.868 223.879 135.289C229.505 112.323 232.24 105.749 238.969 99.0196C244.237 93.7526 249.046 91.0866 256.255 89.4396C260.926 88.3716 260.982 88.3136 259.439 86.1096C257.299 83.0546 251.473 80.2346 245.477 79.3506C242.164 78.8626 239.401 77.6596 237.213 75.7536C229.568 69.0936 223.162 68.6016 207 73.4346C202.325 74.8326 194.769 76.2516 190.208 76.5866L181.916 77.1966L184.708 80.1806C186.244 81.8216 190.099 84.3616 193.275 85.8256L199.05 88.4866L190.275 97.0416C185.449 101.747 179.337 107.922 176.693 110.763L171.887 115.929L168.002 107.639C161.579 93.9336 155.027 82.6216 151.155 78.5536C149.145 76.4416 139.629 68.7916 130.009 61.5536C101.814 40.3406 82.984 20.2446 76.613 4.56957C74.86 0.256571 74.087 -0.77642 73.588 0.52558ZM65.685 49.0646C65.965 52.5456 66.605 57.0326 67.107 59.0346C68.053 62.8126 68.116 62.8496 85.365 69.7826C85.897 69.9966 83.488 66.8666 80.012 62.8276C76.536 58.7886 71.951 52.7916 69.825 49.5006C67.698 46.2106 65.782 43.3416 65.566 43.1266C65.351 42.9116 65.405 45.5836 65.685 49.0646ZM205.046 119.144C203.49 122.582 200.753 131.019 198.964 137.894C197.175 144.769 195.374 150.774 194.962 151.238C194.55 151.702 191.442 149.452 188.055 146.238L181.898 140.394L192.558 129.14C198.421 122.951 204.101 116.763 205.182 115.39C206.262 114.017 207.309 112.894 207.51 112.894C207.71 112.894 206.602 115.707 205.046 119.144ZM166.401 168.541C171.152 173.847 174.795 178.432 174.496 178.731C173.837 179.39 145.611 189.668 145.231 189.388C144.965 189.191 155.748 161.111 156.65 159.651C156.908 159.235 157.263 158.894 157.44 158.894C157.618 158.894 161.65 163.235 166.401 168.541ZM102.788 200.312C97.084 205.564 81.085 217.149 71.5 222.969C63.514 227.819 35.378 241.968 29.75 243.965C27.688 244.697 26 245.548 26 245.857C26 246.166 29.038 247.313 32.75 248.406C37.487 249.801 42.333 250.38 49 250.347C61.107 250.286 67.252 247.693 76.664 238.674C85.176 230.518 101.314 209.396 108.396 197.144C109.812 194.693 107.427 196.04 102.788 200.312Z" fill="black"/>
</svg>
