<svg width="730" height="257" viewBox="0 0 730 257" fill="none" xmlns="http://www.w3.org/2000/svg">
<path fill-rule="evenodd" clip-rule="evenodd" d="M364.776 1.29449C354.873 2.84849 340.62 7.63849 332.776 12.0485C309.436 25.1705 292.222 45.5515 275.58 79.7665C244.252 144.176 240.07 151.466 226.786 164.831C221.18 170.471 217.194 173.435 211.119 176.475C195.96 184.063 182.817 184.258 166.614 177.135C162.4 175.283 158.523 173.766 157.999 173.766C157.475 173.766 155.86 174.699 154.411 175.839C149.815 179.453 151.014 182.938 160.279 192.891C186.058 220.586 224.601 235.678 253.264 229.301C270.628 225.438 283.407 218.04 296.906 204.037C312.883 187.463 320.711 173.824 343.262 123.266C352.57 102.397 358.899 90.2035 365.602 80.2245C371.096 72.0445 380.48 61.7235 386.776 56.9375C393.771 51.6195 407.733 46.7525 415.776 46.8295C419.258 46.8625 419.245 46.8785 413.322 49.9335C390.471 61.7205 374.345 84.6665 352.297 136.766C344.441 155.33 329.681 185.632 324.062 194.73C303.863 227.44 281.876 241.784 251.977 241.758C241.835 241.75 233.009 240.479 223.43 237.648C219.665 236.535 216.358 235.851 216.081 236.128C215.804 236.404 218.66 238.914 222.427 241.704C239.692 254.489 257.931 259.136 275.892 255.329C305.188 249.119 329.291 225.121 351.282 180.266C355.866 170.916 362.091 157.416 365.117 150.266C386.037 100.823 399.618 78.5975 415.089 68.4875C429.322 59.1865 442.882 57.8585 457.521 64.3325C464.788 67.5465 469.224 67.5375 471.341 64.3075C473.586 60.8825 472.478 56.6775 467.247 48.7665C457.14 33.4805 442.279 19.4565 427.776 11.5205C409.331 1.42649 387.014 -2.19651 364.776 1.29449ZM399.669 18.7925C408.094 20.8125 423.889 27.5225 425.196 29.6365C425.696 30.4465 423.16 30.7665 416.229 30.7665C390.613 30.7665 369.478 43.7975 351.349 70.7665C342.978 83.2205 336.714 95.1975 326.768 117.766C307.655 161.137 297.212 179.386 283.827 192.803C267.497 209.173 251.343 215.457 231.161 213.288L224.276 212.549L231.776 210.368C263.857 201.044 284.194 177.077 311.35 116.592C331.479 71.7575 344.612 51.8335 362.41 39.1335C369.494 34.0785 381.518 28.2725 387.037 27.2425C393.328 26.0675 392.295 24.7655 385.085 24.7835C372.262 24.8165 358.197 29.1455 346.776 36.5755C339.711 41.1705 326.345 54.5575 321.124 62.2665C314.013 72.7655 307.103 85.8475 296.24 109.372C283.36 137.266 278.594 146.327 270.025 159.209C254.41 182.683 235.879 195.276 215.276 196.416L207.276 196.859L212.276 194.538C223.408 189.372 233.238 182.692 239.785 175.844C253.535 161.461 263.294 145.77 277.773 114.766C298.939 69.4425 307.991 54.4675 322.54 40.7045C332.042 31.7155 338.879 27.1345 348.997 22.9775C364.373 16.6595 384.008 15.0385 399.669 18.7925ZM176.491 68.7965C168.492 70.1575 159.223 75.1725 152.1 81.9935C143.981 89.7665 139.082 96.6155 129.731 113.266C114.656 140.109 104.915 151.976 94.5273 156.149C87.6073 158.93 75.7813 169.486 77.9503 170.947C78.6793 171.438 83.1123 171.711 87.8013 171.553C98.5753 171.19 105.134 168.124 118.953 156.99C130.477 147.705 135.913 144.814 143.273 144.054C153.952 142.952 163.292 149.138 173.033 163.766C175.78 167.891 178.732 171.829 179.593 172.516C181.107 173.725 196.776 174.384 196.776 173.238C196.776 172.948 195.369 169.91 193.648 166.488C181.602 142.528 166.382 129.186 149.73 127.995L142.667 127.489L145.28 124.761C149.173 120.699 158.27 116.471 164.141 115.997C178.574 114.831 190.467 125.682 207.936 155.95C210.735 160.799 213.359 164.766 213.768 164.766C214.176 164.766 217.073 162.264 220.205 159.206L225.9 153.648L222.717 147.956C210.036 125.281 196.447 109.622 184.294 103.68C177.728 100.47 176.698 100.266 167.043 100.266C161.396 100.266 156.776 99.9905 156.776 99.6535C156.776 98.3095 166.757 89.8125 170.884 87.6425C177.446 84.1905 188.269 84.3255 196.013 87.9555C206.427 92.8355 219.082 107.725 231.768 130.023C234.191 134.282 236.432 137.766 236.747 137.766C237.063 137.766 239.308 134.025 241.736 129.452L246.152 121.139L241.363 113.202C221.312 79.9725 199.311 64.9125 176.491 68.7965ZM406.61 88.5165C404.642 91.1295 400.465 97.5415 397.327 102.766L391.622 112.266L392.286 118.766C395.411 149.37 412.592 185.869 433.709 206.766C443.328 216.285 451.989 221.824 462.081 224.912C467.691 226.628 470.589 226.904 478.581 226.482C483.913 226.201 489.401 225.63 490.776 225.213C495.066 223.91 484.005 232.488 476.792 236.057C470.728 239.058 469.621 239.266 459.737 239.266C449.453 239.266 448.952 239.16 441.222 235.338C426.212 227.917 409.59 208.617 396.852 183.818C391.427 173.258 383.83 154.262 381.733 146.016C380.999 143.129 380.096 140.766 379.727 140.766C379.358 140.766 376.875 145.534 374.209 151.361L369.362 161.956L371.742 168.611C373.051 172.271 376.22 179.766 378.785 185.266C392.935 215.605 414.395 240.561 435.099 250.753C451.078 258.62 466.629 258.442 483.575 250.199C493.721 245.263 494.999 244.097 529.276 208.519C538.968 198.459 542.526 195.458 547.776 192.92C560.887 186.58 568.181 186.78 583.924 193.912C592.002 197.571 594.24 198.157 600.353 198.208C606.535 198.26 608.046 197.885 612.304 195.253C616.88 192.425 621.721 186.378 620.437 185.094C620.119 184.776 618.031 185.247 615.797 186.141C608.645 189.003 605.186 188.33 591.539 181.42C577.523 174.321 570.432 172.461 560.744 173.338L554.276 173.923L561.378 166.98C568.981 159.547 581.134 150.08 586.658 147.288L590.04 145.579L597.158 152.536C609.532 164.631 620.198 170.5 631.538 171.45C638.943 172.071 647.25 170.274 652.923 166.824L655.986 164.96L650.644 161.363C645.676 158.017 644.771 157.766 637.699 157.766C631.193 157.766 629.198 157.317 623.876 154.658C617.469 151.457 605.389 141.202 606.297 139.734C607.299 138.112 617.848 137.52 624.072 138.736C632.109 140.306 640.506 144.49 655.011 154.152C670.47 164.449 679.362 167.962 691.463 168.551C698.949 168.916 702.004 168.592 707.963 166.801C718.278 163.701 731.456 156.113 729.654 154.312C729.43 154.088 726.113 154.773 722.283 155.835C713.706 158.213 699.619 158.391 691.236 156.227C682.384 153.942 674.47 149.941 661.133 141.006C638.944 126.141 628.286 122.178 612.776 123.027C596.995 123.89 580.356 131.434 562.494 145.824C557.974 149.466 546.401 160.673 536.776 170.732C510.545 198.144 497.736 207.411 482.46 210.027C470.676 212.046 458.456 207.986 448.504 198.743L443.276 193.886L447.776 195.497C450.777 196.571 455.606 197.107 462.276 197.105C482.032 197.099 491.298 191.415 522.276 160.294C546.104 136.356 550.802 132.944 561.276 131.98C564.911 131.645 568.204 130.329 573.339 127.157C577.223 124.757 581.835 122.294 583.589 121.682C585.342 121.071 586.776 120.225 586.776 119.803C586.776 116.52 570.07 102.793 560.475 98.1915C546.196 91.3435 533.315 91.6095 518.431 99.0595C511.302 102.627 508.078 105.328 490.818 122.192C474.408 138.226 470.154 141.839 464.276 144.734C458.223 147.715 456.259 148.188 449.758 148.225C443.211 148.262 441.364 147.837 435.47 144.936C420.742 137.688 410.958 122.971 409.192 105.408C408.65 100.018 409.831 89.3925 411.438 85.2045C412.588 82.2075 410.049 83.9495 406.61 88.5165ZM110.276 100.112C99.2893 103.732 92.3513 110.953 81.7763 129.775C71.2743 148.466 63.4033 155.918 50.5403 159.342C45.3393 160.727 31.7763 161.325 31.7763 160.17C31.7763 158.512 50.3843 139.706 53.4773 138.238C56.9333 136.598 62.9343 136.579 66.8463 138.195C67.9983 138.67 69.1313 137.529 71.0933 133.924C74.0613 128.472 73.8403 127.92 67.8773 125.911C57.9023 122.551 46.8793 126.123 38.4293 135.455C20.2863 155.491 16.2563 158.206 5.49728 157.635C2.32528 157.467 0.265291 157.799 0.026291 158.518C-0.936709 161.406 24.8013 170.983 36.7763 172.193C55.1823 174.054 73.0263 165.941 84.3453 150.566C86.8073 147.221 91.3663 139.951 94.4753 134.412C100.047 124.483 106.179 116.725 110.213 114.497C111.348 113.87 114.301 113.112 116.776 112.812C121.06 112.292 121.419 111.993 124.253 106.577C125.891 103.447 126.894 100.55 126.482 100.139C125.129 98.7855 114.357 98.7675 110.276 100.112ZM555.526 112.113C561.33 115.085 562.219 116.749 558.026 116.799C556.513 116.817 552.967 117.629 550.144 118.605C539.348 122.336 533.807 126.733 510.776 149.844C491.064 169.624 487.347 172.901 480.776 176.29C474.151 179.707 472.268 180.207 464.636 180.579C454.265 181.084 448.218 179.429 439.095 173.583C432.889 169.606 425.08 162.071 422.855 157.913C421.735 155.821 421.987 155.868 426.976 158.684C443.281 167.886 462.471 166.363 478.831 154.568C482.113 152.202 490.756 144.059 498.037 136.473C520.401 113.172 528.085 108.41 542.276 109.059C548.502 109.343 551.44 110.022 555.526 112.113Z" fill="black"/>
</svg>
